<svg width="111" height="48" viewBox="0 0 111 48" fill="none" xmlns="http://www.w3.org/2000/svg">
<g clip-path="url(#clip0_1541_63322)">
<path d="M0.0088591 9.72314C0.0088591 7.59616 0.000631904 5.46917 0.0133196 3.3422L0.168725 3.29215L5.79571 6.47197C5.8281 6.20362 5.86614 6.03409 5.86614 5.86578C5.87058 4.07476 5.86614 2.28434 5.86995 0.493301C5.86995 -0.0841102 5.91625 -0.109134 6.43137 0.184264C11.4147 3.02024 16.3972 5.85829 21.3787 8.69845C21.9554 9.0275 22.5283 9.36283 23.11 9.68187C23.3638 9.82013 23.4652 10.009 23.464 10.2924C23.4572 12.2238 23.4572 14.1546 23.464 16.0847C23.464 16.3843 23.3548 16.5708 23.0871 16.7228C20.1876 18.3672 17.2916 20.0175 14.3992 21.6736C13.7251 22.0586 13.0499 22.4422 12.3736 22.8247C12.2055 22.9198 12.0311 23.0036 11.7843 23.1325C11.764 22.8885 11.7373 22.7177 11.7367 22.5469C11.7336 20.7703 11.7368 18.9936 11.7336 17.217C11.7336 16.6258 11.6587 16.577 11.1372 16.8716C9.48781 17.8006 7.84796 18.7434 6.19855 19.6724C5.92069 19.8288 5.86614 20.0521 5.86677 20.338C5.87251 22.2266 5.86233 24.1153 5.87502 26.0039C5.87502 26.3636 5.77862 26.5894 5.44172 26.7771C3.76442 27.7155 2.10361 28.6777 0.435179 29.6298C0.117987 29.8112 0.0133171 29.7549 0.0107796 29.3689C0.00253258 28.1941 0.00504906 27.0186 0.00504906 25.8438C0.00504906 22.9473 0.0133221 20.0515 0 17.1557C0 16.7315 0.121791 16.4619 0.511936 16.2461C2.19179 15.3152 3.85768 14.3593 5.52359 13.4034C5.82872 13.2283 6.07483 13.3052 6.35399 13.4616C8.02874 14.4013 9.70901 15.3315 11.3948 16.2524C11.5553 16.3399 11.8344 16.3818 11.9797 16.303C13.756 15.3408 15.5139 14.3531 17.2768 13.3697C17.3508 13.3177 17.4207 13.2604 17.4861 13.1983C17.3647 13.0984 17.2377 13.0055 17.1055 12.9199C13.4862 10.8575 9.86701 8.79436 6.24803 6.73036C5.97461 6.57456 5.77732 6.58461 5.51152 6.73911C3.89956 7.67372 2.27615 8.59209 0.656564 9.51356C0.499236 9.60363 0.334303 9.68061 0.172535 9.76378L0.0088591 9.72314Z" fill="#E95C7B"/>
<path d="M24.1374 24.0091H16.8854V48H20.8722V39.6271L23.3125 42.0536H24.1374C27.4024 42.1219 30.4613 40.4131 32.1111 37.5766C33.7608 34.7743 33.7608 31.2884 32.1111 28.486C30.4613 25.6837 27.4024 23.9749 24.1374 24.0091ZM24.8935 38.0551L20.8722 34.0224V27.9734H24.1374C26.8525 27.8709 29.1553 29.9556 29.3615 32.6554C29.5677 35.321 27.6087 37.7133 24.8935 38.0551Z" fill="white"/>
<path d="M43.7642 24.18C43.1455 24.0091 42.5268 23.9066 41.9082 23.9066C38.2307 23.9066 35.2062 26.8798 35.2062 30.5707V41.8827H39.193V30.5707C39.193 29.067 40.3959 27.8709 41.9082 27.8709C42.1488 27.8709 42.3894 27.905 42.63 27.9734L42.9736 28.0759L44.0735 24.2825L43.7642 24.18Z" fill="white"/>
<path d="M53.7474 23.7016C49.9326 23.5648 46.3927 25.7521 44.8116 29.2379C43.2306 32.6896 43.9524 36.7906 46.599 39.5588C48.4203 41.4042 50.8948 42.3953 53.4038 42.3953C58.5596 42.3953 62.8212 38.2601 62.8212 33.0655C62.8899 28.0076 58.8686 23.8041 53.7474 23.7016ZM53.7474 38.4652C51.548 38.6019 49.4517 37.3716 48.489 35.3894C47.5267 33.3731 47.9049 30.9808 49.4171 29.3746C50.448 28.2468 51.8916 27.6659 53.3697 27.6659C56.3596 27.6659 58.8341 30.0239 58.8341 33.0655C58.9373 35.9362 56.6692 38.3285 53.7474 38.4652Z" fill="white"/>
<path d="M76.5008 18.131V24.0775H73.2359C69.971 24.0091 66.912 25.7179 65.2621 28.5544C63.6126 31.3567 63.6126 34.8426 65.2621 37.645C66.912 40.4473 69.971 42.1561 73.2359 42.1219H74.0609L76.5008 39.6955V42.1219H80.4879V18.131H76.5008ZM76.5008 34.0908L72.4796 38.1234C69.7646 37.7816 67.8056 35.3894 68.012 32.6896C68.2179 29.9897 70.5205 27.9392 73.2359 28.0418H76.5008V34.0908Z" fill="white"/>
<path d="M91.9003 32.1428L100.733 24.0091H94.8906L87.5354 30.7758V18.131H83.5487V42.0877H87.5354V36.1754L88.979 34.8426L96.231 42.0877H100.252V38.1576H97.9151L91.9003 32.1428Z" fill="white"/>
<path d="M109.704 37.9867L109.36 38.0892C109.12 38.1576 108.879 38.1918 108.604 38.1918C107.126 38.1918 105.923 37.0298 105.923 35.5603V27.905H110.254V24.0091H105.923V18.131H101.936V35.5603C101.971 39.217 104.961 42.1219 108.604 42.0877C109.257 42.0877 109.876 42.0194 110.495 41.8485L110.804 41.746L109.704 37.9867Z" fill="white"/>
</g>
<defs>
<clipPath id="clip0_1541_63322">
<rect width="110.804" height="48" fill="white"/>
</clipPath>
</defs>
</svg>
