<svg width="24" height="30" viewBox="0 0 24 30" fill="none" xmlns="http://www.w3.org/2000/svg">
<path d="M0.0088591 9.72314C0.0088591 7.59616 0.000631904 5.46917 0.0133196 3.3422L0.168725 3.29215L5.79571 6.47197C5.8281 6.20362 5.86614 6.03409 5.86614 5.86578C5.87058 4.07476 5.86614 2.28434 5.86995 0.493301C5.86995 -0.0841102 5.91625 -0.109134 6.43137 0.184264C11.4147 3.02024 16.3972 5.85829 21.3788 8.69845C21.9554 9.0275 22.5283 9.36283 23.11 9.68187C23.3638 9.82013 23.4652 10.009 23.464 10.2924C23.4572 12.2238 23.4572 14.1546 23.464 16.0847C23.464 16.3843 23.3548 16.5708 23.0871 16.7228C20.1876 18.3672 17.2916 20.0175 14.3992 21.6736C13.7251 22.0586 13.0499 22.4422 12.3736 22.8247C12.2055 22.9198 12.0311 23.0036 11.7843 23.1325C11.764 22.8885 11.7373 22.7177 11.7367 22.5469C11.7336 20.7703 11.7368 18.9936 11.7336 17.217C11.7336 16.6258 11.6587 16.577 11.1372 16.8716C9.48781 17.8006 7.84796 18.7434 6.19855 19.6724C5.92069 19.8288 5.86614 20.0521 5.86677 20.338C5.87251 22.2266 5.86233 24.1153 5.87502 26.0039C5.87502 26.3636 5.77862 26.5894 5.44172 26.7771C3.76442 27.7155 2.10361 28.6777 0.435179 29.6298C0.117987 29.8112 0.0133171 29.7549 0.0107796 29.3689C0.00253258 28.1941 0.00504906 27.0186 0.00504906 25.8438C0.00504906 22.9473 0.0133221 20.0515 0 17.1557C0 16.7315 0.121791 16.4619 0.511936 16.2461C2.19179 15.3152 3.85768 14.3593 5.52359 13.4034C5.82872 13.2283 6.07483 13.3052 6.35399 13.4616C8.02874 14.4013 9.70901 15.3315 11.3948 16.2524C11.5553 16.3399 11.8344 16.3818 11.9797 16.303C13.756 15.3408 15.5139 14.3531 17.2768 13.3697C17.3508 13.3177 17.4207 13.2604 17.4861 13.1983C17.3647 13.0984 17.2377 13.0055 17.1055 12.9199C13.4862 10.8575 9.86701 8.79436 6.24803 6.73036C5.97461 6.57456 5.77732 6.58461 5.51152 6.73911C3.89956 7.67372 2.27615 8.59209 0.656564 9.51356C0.499236 9.60363 0.334303 9.68061 0.172535 9.76378L0.0088591 9.72314Z" fill="#E95C7B"/>
</svg>
